<?xml version="1.0" encoding="utf-8" ?><svg xmlns="http://www.w3.org/2000/svg" xmlns:xlink="http://www.w3.org/1999/xlink" width="1024" height="1024" viewBox="0 0 1024 1024"><path fill="#20808D" transform="scale(2 2)" d="M381.294 61.4577C385.909 56.602 413.678 24.446 418.572 23.5801C429.447 23.1392 426.693 34.8353 426.177 41.931L424.775 63.0342C424.478 67.7398 423.982 73.0916 424.254 77.7364C437.258 83.8836 450.52 89.3928 463.661 95.2142C470.694 98.3297 470.491 107.843 465.508 109.741C451.596 115.037 434.208 118.598 419.571 123.033C418.597 127.116 417.99 134.514 417.501 138.962L414.913 161.037C414.338 166.021 414.593 175.121 409.45 177.306C401.374 180.736 398.881 174.582 395.779 168.946L389.522 157.564C384.927 149.233 380.201 141.598 375.747 133.149L362.198 136.716C356.694 138.192 330.071 146.263 326.377 145.706C320.868 144.876 318.526 137.842 321.567 133.538C325.634 127.781 330.391 122.384 334.762 116.847L345.424 103.573C347.609 100.859 349.837 97.2965 352.703 95.3701C344.426 80.5087 334.012 65.9425 325.541 51.1489C324.775 49.811 325.225 46.722 325.922 45.3422C329.602 38.2296 335.148 41.5873 340.505 43.869C354.222 49.7111 367.779 55.1368 381.294 61.4577ZM410.262 51.4806C404.495 56.3453 388.372 78.2494 384.447 77.3412C373.215 74.742 359.374 65.6481 349.472 63.8771C353.642 69.5741 367.659 89.4021 369.348 95.3701C367.288 102.836 351.257 117.766 345.593 126.207C348.393 126.046 353.637 124.418 356.562 123.627L370.855 119.851C385.493 116.17 383.179 118.585 390.436 130.195C394.39 136.52 398.103 142.879 401.513 149.461C403.806 140.811 404.105 129.579 405.499 120.6C406.408 114.745 405.958 111.581 412.883 109.626C422.226 106.759 431.817 104.783 441.153 101.992C438.579 100.2 435.257 98.9068 432.372 97.6271L419.265 91.885C417.471 91.107 411.113 88.3881 410.193 86.8853C407.786 82.9566 411.5 53.0087 410.262 51.4806Z"/><path fill="#20808D" transform="scale(2 2)" d="M107.451 169.312L107.744 326.6C107.406 333.697 100.717 337.506 95.1271 332.828C91.9672 330.184 92.9286 321.615 92.8865 317.76L92.7886 92.396C92.9212 71.9722 99.0749 69.4998 118.439 69.4956L144.886 69.5068L315.999 69.4662C323.566 69.5391 329.374 75.5222 324.023 81.6027C320.518 85.585 314.715 84.2933 310.014 84.2723L133.73 84.2687C126.298 84.264 118.714 84.2174 111.274 84.3116C107.807 84.3555 107.52 86.421 107.493 89.397L107.451 169.312Z"/><path fill="#20808D" transform="scale(2 2)" d="M275.485 181.34C266.893 183.119 266.074 175.51 266.104 169.577C266.158 158.684 265.951 147.765 266.16 136.877C266.232 133.195 268.792 131.539 272.051 130.785C277.463 130.583 280.551 132.516 280.859 137.884C281.107 142.192 281.096 174.373 280.396 176.394C279.636 178.59 277.541 180.379 275.485 181.34Z"/><path fill="#20808D" transform="scale(2 2)" d="M241.39 184.075C237.746 184.755 236.094 184.054 233.912 181.134C226.896 171.722 220.765 161.752 213.869 152.238C210.023 146.931 205.489 139.593 214.292 136.716C221.963 135.177 223.499 141.522 227.708 147.339L238.164 162.008C242.349 167.865 252.783 179.262 241.39 184.075Z"/><path fill="#20808D" transform="scale(2 2)" d="M304.302 197.316C298.158 197.821 292.294 192.987 295.209 187.608C297.809 182.809 300.94 178.255 303.675 173.522C306.859 168.261 309.912 159.602 315.94 157.259C322.052 157 327.096 161.273 324.412 167.644C323.088 170.787 320.471 173.989 318.7 176.979C315.578 182.25 309.602 195.206 304.302 197.316Z"/><path fill="#20808D" transform="scale(2 2)" d="M179.294 258.047C170.082 261.793 169.423 252.209 167.953 246.565C160.416 217.636 130.008 222.327 127.73 214.297C124.667 203.501 134.82 204.847 140.27 203.838C152.483 201.576 164.551 190.429 167.595 178.455C169.058 172.704 167.067 168.111 173.831 165.274C184.889 164.288 182.695 171.864 184.779 179.14C188.387 191.287 199.724 202.063 212.211 204.636C218.116 205.852 228.059 203.187 226.36 214.022C224.388 223.174 200.485 215.077 186.734 241.118C183.454 247.331 185.375 253.965 179.294 258.047ZM176.247 195.407C170.414 204.736 167.776 206.451 158.848 212.714C168.754 217.205 170.54 222.003 176.247 229.425C180.391 222.403 186.073 216.613 193.259 212.714L193.094 212.567C189.358 209.311 186.717 208.462 182.804 204.175C180.692 201.862 177.403 196.558 176.247 195.407Z"/><path fill="#20808D" transform="scale(2 2)" d="M331.871 215.857C325.714 216.664 321.75 212.213 323.667 205.849C324.273 203.835 353.132 182.832 358.455 181.34C366.521 180.91 369.782 190.278 363.57 194.807C359.101 198.065 335.29 214.816 331.871 215.857Z"/><path fill="#20808D" transform="scale(2 2)" d="M107.451 429.436C107.565 436.963 103.729 468.858 112.545 469.21C121.536 469.569 130.584 469.427 139.588 469.422L397.682 469.421C409.765 469.429 410.281 472.128 410.274 459L410.244 213.097C410.234 204.84 407.444 193.508 416.484 190.769C427.485 190.187 425.019 205.002 425.014 212.523L425 449.496C425.029 462.106 426.84 482.785 408.26 484.158C402.753 484.565 396.774 484.428 391.171 484.426L129.157 484.426C118.962 484.425 108.687 486.113 100.219 479.29C89.3751 470.552 94.0889 456.781 92.8448 445.004L92.8055 444.657C68.6181 471.047 27.2804 437.624 48.33 411.043C50.176 408.712 52.624 406.711 54.6137 404.498C65.5325 394.163 75.8054 383.36 86.3194 372.642L161.507 296.627C165.629 292.496 169.733 288.382 173.901 284.295C181.579 276.82 186.16 268.579 195.443 281.219C205.026 271.155 215.026 261.41 224.835 251.554C236.085 239.63 248.109 228.49 259.169 216.353C259.959 215.486 262.546 214.861 263.751 214.544C267.873 216.053 285.822 233.895 289.89 237.971C293.087 241.175 292.206 244.033 289.633 247.017L116.309 420.507C113.383 423.481 110.506 426.611 107.451 429.436ZM263.751 233.403C256.445 239.774 247.985 249.207 241.065 256.225L205.679 291.456C206.984 292.841 213.436 299.655 214.72 300.608C215.151 300.397 215.023 300.541 215.193 300.279C217.539 297.399 220.433 295.073 223.07 292.464L273.046 242.149C271.915 241.002 264.763 233.779 263.751 233.403ZM186.411 292.445L102.054 377.791C87.652 392.296 72.9939 406.597 59.0114 421.499C53.5 427.373 61.4485 442.387 75.1996 439.219C80.3146 437.264 82.8549 433.461 86.6299 429.734L167.394 348.286C177.267 338.316 196.685 321.666 204.264 311.301C202.105 308.634 199.794 306.525 197.42 304.057L186.411 292.445Z"/><path fill="#20808D" transform="scale(2 2)" d="M337.807 250.367C331.407 246.18 330.087 237.233 339.038 235.793C343.935 235.633 387.531 234.854 390.363 237.081C395.351 241 394.821 248.988 387.533 250.367C374.451 251.686 351.341 250.574 337.807 250.367Z"/><path fill="#20808D" transform="scale(2 2)" d="M275.485 313.135C280.654 303.767 286.009 294.506 291.069 285.079C293.134 281.234 295.206 274.694 299.619 273.122C308.788 271.969 310.649 280.214 314.555 287.517C319.22 296.241 324.125 305.046 328.508 313.899C342.491 316.138 357.024 317.111 370.969 319.769C374.497 320.092 376.439 326.758 374.405 329.139C364.557 340.669 353.679 351.87 343.627 363.23C346.051 376.215 346.381 390.693 348.333 403.86C349.175 409.538 343.186 413.661 338.038 411.174C326.022 405.369 314.412 398.824 302.518 392.74C300.999 391.873 274.847 406.686 271.527 408.564C251.339 421.063 255.643 402.849 256.909 390.779C257.875 381.562 259.08 372.336 260.482 363.23C255.309 356.509 229.769 333.494 228.777 328.667C228.006 324.912 230.021 320.862 233.716 319.602C247.383 316.792 261.853 315.942 275.485 313.135ZM302.518 295.374L302.221 295.721C294.208 305.17 290.298 326.737 278.128 327.873C269.799 329.612 258.396 329.434 250.633 332.334C253.319 334.065 275.476 356.256 275.439 357.95C275.198 368.958 272.342 380.559 272.051 391.598C275.842 388.923 297.438 377.545 300.65 376.738C304.305 376.62 311.902 381.066 315.491 382.976L331.871 391.598L331.861 391.212C331.599 382.779 329.827 371.55 328.72 363.08C328.13 358.568 328.496 357.834 331.602 354.484L345.663 339.083C347.657 336.892 350.076 334.517 351.949 332.334C344.21 330.719 321.323 329.904 317.583 324.23C315.455 321 302.885 295.627 302.518 295.374Z"/></svg>